%TF.GenerationSoftware,KiCad,Pcbnew,(6.0.5)*%
%TF.CreationDate,2023-02-06T04:07:19+00:00*%
%TF.ProjectId,AutoFloppySwitcher,4175746f-466c-46f7-9070-795377697463,rev?*%
%TF.SameCoordinates,Original*%
%TF.FileFunction,Soldermask,Bot*%
%TF.FilePolarity,Negative*%
%FSLAX46Y46*%
G04 Gerber Fmt 4.6, Leading zero omitted, Abs format (unit mm)*
G04 Created by KiCad (PCBNEW (6.0.5)) date 2023-02-06 04:07:19*
%MOMM*%
%LPD*%
G01*
G04 APERTURE LIST*
G04 Aperture macros list*
%AMRoundRect*
0 Rectangle with rounded corners*
0 $1 Rounding radius*
0 $2 $3 $4 $5 $6 $7 $8 $9 X,Y pos of 4 corners*
0 Add a 4 corners polygon primitive as box body*
4,1,4,$2,$3,$4,$5,$6,$7,$8,$9,$2,$3,0*
0 Add four circle primitives for the rounded corners*
1,1,$1+$1,$2,$3*
1,1,$1+$1,$4,$5*
1,1,$1+$1,$6,$7*
1,1,$1+$1,$8,$9*
0 Add four rect primitives between the rounded corners*
20,1,$1+$1,$2,$3,$4,$5,0*
20,1,$1+$1,$4,$5,$6,$7,0*
20,1,$1+$1,$6,$7,$8,$9,0*
20,1,$1+$1,$8,$9,$2,$3,0*%
G04 Aperture macros list end*
%ADD10C,0.100000*%
%ADD11RoundRect,0.450000X0.450000X-0.450000X0.450000X0.450000X-0.450000X0.450000X-0.450000X-0.450000X0*%
%ADD12C,1.800000*%
%ADD13C,1.152000*%
%ADD14C,3.040000*%
%ADD15RoundRect,0.450000X-0.450000X-0.450000X0.450000X-0.450000X0.450000X0.450000X-0.450000X0.450000X0*%
%ADD16O,1.800000X1.800000*%
%ADD17RoundRect,0.425000X0.425000X-0.425000X0.425000X0.425000X-0.425000X0.425000X-0.425000X-0.425000X0*%
G04 APERTURE END LIST*
%TO.C,U4*%
G36*
X82994000Y-102372500D02*
G01*
X73994000Y-102372500D01*
X73994000Y-56872500D01*
X82994000Y-56872500D01*
X82994000Y-102372500D01*
G37*
D10*
X82994000Y-102372500D02*
X73994000Y-102372500D01*
X73994000Y-56872500D01*
X82994000Y-56872500D01*
X82994000Y-102372500D01*
%TD*%
D11*
%TO.C,SW1*%
X101722000Y-92232500D03*
D12*
X104262000Y-92232500D03*
X106802000Y-92232500D03*
X101722000Y-89692500D03*
X104262000Y-89692500D03*
X106802000Y-89692500D03*
%TD*%
D13*
%TO.C,*%
X151172800Y-100042500D03*
%TD*%
D14*
%TO.C,J3*%
X146000000Y-80855500D03*
X146000000Y-75775500D03*
X146000000Y-70695500D03*
X146000000Y-65615500D03*
%TD*%
D13*
%TO.C,*%
X151170000Y-59342500D03*
%TD*%
%TO.C,REF\u002A\u002A*%
X84937600Y-100042500D03*
%TD*%
D11*
%TO.C,J1*%
X101722000Y-69690000D03*
D12*
X101722000Y-67150000D03*
X104262000Y-69690000D03*
X104262000Y-67150000D03*
X106802000Y-69690000D03*
X106802000Y-67150000D03*
X109342000Y-69690000D03*
X109342000Y-67150000D03*
%TD*%
D15*
%TO.C,U3*%
X133771000Y-59372500D03*
D16*
X136311000Y-59372500D03*
X133771000Y-61912500D03*
X136311000Y-61912500D03*
X133771000Y-64452500D03*
X136311000Y-64452500D03*
X133771000Y-66992500D03*
X136311000Y-66992500D03*
X133771000Y-69532500D03*
X136311000Y-69532500D03*
X133771000Y-72072500D03*
X136311000Y-72072500D03*
X133771000Y-74612500D03*
X136311000Y-74612500D03*
X133771000Y-77152500D03*
X136311000Y-77152500D03*
X133771000Y-79692500D03*
X136311000Y-79692500D03*
X133771000Y-82232500D03*
X136311000Y-82232500D03*
X133771000Y-84772500D03*
X136311000Y-84772500D03*
X133771000Y-87312500D03*
X136311000Y-87312500D03*
X133771000Y-89852500D03*
X136311000Y-89852500D03*
X133771000Y-92392500D03*
X136311000Y-92392500D03*
X133771000Y-94932500D03*
X136311000Y-94932500D03*
X133771000Y-97472500D03*
X136311000Y-97472500D03*
X133771000Y-100012500D03*
X136311000Y-100012500D03*
%TD*%
D15*
%TO.C,U2*%
X91816000Y-59372500D03*
D16*
X94356000Y-59372500D03*
X91816000Y-61912500D03*
X94356000Y-61912500D03*
X91816000Y-64452500D03*
X94356000Y-64452500D03*
X91816000Y-66992500D03*
X94356000Y-66992500D03*
X91816000Y-69532500D03*
X94356000Y-69532500D03*
X91816000Y-72072500D03*
X94356000Y-72072500D03*
X91816000Y-74612500D03*
X94356000Y-74612500D03*
X91816000Y-77152500D03*
X94356000Y-77152500D03*
X91816000Y-79692500D03*
X94356000Y-79692500D03*
X91816000Y-82232500D03*
X94356000Y-82232500D03*
X91816000Y-84772500D03*
X94356000Y-84772500D03*
X91816000Y-87312500D03*
X94356000Y-87312500D03*
X91816000Y-89852500D03*
X94356000Y-89852500D03*
X91816000Y-92392500D03*
X94356000Y-92392500D03*
X91816000Y-94932500D03*
X94356000Y-94932500D03*
X91816000Y-97472500D03*
X94356000Y-97472500D03*
X91816000Y-100012500D03*
X94356000Y-100012500D03*
%TD*%
D17*
%TO.C,J2*%
X146000000Y-96807500D03*
D12*
X146000000Y-94307500D03*
X146000000Y-91807500D03*
X146000000Y-89307500D03*
%TD*%
M02*
