M48
; DRILL file {KiCad (6.0.5)} date Mon Feb  6 04:07:21 2023
; FORMAT={-:-/ absolute / metric / decimal}
; #@! TF.CreationDate,2023-02-06T04:07:21+00:00
; #@! TF.GenerationSoftware,Kicad,Pcbnew,(6.0.5)
; #@! TF.FileFunction,Plated,1,4,PTH
FMAT,2
METRIC
; #@! TA.AperFunction,Plated,PTH,ViaDrill
T1C0.400
; #@! TA.AperFunction,Plated,PTH,ComponentDrill
T2C1.000
; #@! TA.AperFunction,Plated,PTH,ComponentDrill
T3C1.100
; #@! TA.AperFunction,Plated,PTH,ComponentDrill
T4C1.200
; #@! TA.AperFunction,Plated,PTH,ComponentDrill
T5C1.800
%
G90
G05
T1
X97.333Y-94.932
X97.333Y-97.472
X97.333Y-100.012
X110.522Y-78.994
X110.522Y-82.8
X110.522Y-86.6
X110.522Y-90.424
X113.69Y-74.168
X115.602Y-86.614
X116.738Y-92.405
X117.126Y-73.152
X118.599Y-78.359
X120.555Y-68.58
X121.056Y-74.117
X121.158Y-78.359
X123.698Y-78.867
X123.984Y-73.152
X125.984Y-92.405
X128.27Y-96.266
X128.473Y-79.007
X128.524Y-69.596
X130.287Y-82.804
X131.064Y-76.454
X131.775Y-69.596
T2
X91.816Y-59.372
X91.816Y-61.912
X91.816Y-64.453
X91.816Y-66.992
X91.816Y-69.532
X91.816Y-72.072
X91.816Y-74.612
X91.816Y-77.153
X91.816Y-79.692
X91.816Y-82.233
X91.816Y-84.772
X91.816Y-87.312
X91.816Y-89.852
X91.816Y-92.392
X91.816Y-94.932
X91.816Y-97.472
X91.816Y-100.012
X94.356Y-59.372
X94.356Y-61.912
X94.356Y-64.453
X94.356Y-66.992
X94.356Y-69.532
X94.356Y-72.072
X94.356Y-74.612
X94.356Y-77.153
X94.356Y-79.692
X94.356Y-82.233
X94.356Y-84.772
X94.356Y-87.312
X94.356Y-89.852
X94.356Y-92.392
X94.356Y-94.932
X94.356Y-97.472
X94.356Y-100.012
X101.722Y-67.15
X101.722Y-69.69
X104.262Y-67.15
X104.262Y-69.69
X106.802Y-67.15
X106.802Y-69.69
X109.342Y-67.15
X109.342Y-69.69
X133.771Y-59.372
X133.771Y-61.912
X133.771Y-64.453
X133.771Y-66.992
X133.771Y-69.532
X133.771Y-72.072
X133.771Y-74.612
X133.771Y-77.153
X133.771Y-79.692
X133.771Y-82.233
X133.771Y-84.772
X133.771Y-87.312
X133.771Y-89.852
X133.771Y-92.392
X133.771Y-94.932
X133.771Y-97.472
X133.771Y-100.012
X136.311Y-59.372
X136.311Y-61.912
X136.311Y-64.453
X136.311Y-66.992
X136.311Y-69.532
X136.311Y-72.072
X136.311Y-74.612
X136.311Y-77.153
X136.311Y-79.692
X136.311Y-82.233
X136.311Y-84.772
X136.311Y-87.312
X136.311Y-89.852
X136.311Y-92.392
X136.311Y-94.932
X136.311Y-97.472
X136.311Y-100.012
X146.0Y-89.307
X146.0Y-91.807
X146.0Y-94.307
X146.0Y-96.807
T3
X101.722Y-89.692
X101.722Y-92.233
X104.262Y-92.233
X106.802Y-89.692
X106.802Y-92.233
T4
X104.262Y-89.692
T5
X146.0Y-65.615
X146.0Y-70.695
X146.0Y-75.775
X146.0Y-80.855
T0
M30
